<svg width="97" height="97" viewBox="0 0 97 97" fill="none" xmlns="http://www.w3.org/2000/svg">
<path d="M0.811923 75.0628C1.03423 76.4346 2.3511 77.5573 3.74015 77.5573H10.545C11.9359 77.5573 13.1235 76.4212 13.1889 75.0354L13.2322 74.109C13.2953 72.7214 12.5281 70.8004 11.5234 69.8397L10.8178 69.1638C9.8135 68.2049 9.89217 66.7249 10.9911 65.8758L18.2557 58.3195C19.3535 57.4722 20.7624 57.793 21.3831 59.0359L29.515 75.2988C30.1379 76.5396 31.781 77.5573 33.1704 77.5573H38.5108C39.8988 77.5573 40.9464 76.4241 40.8385 75.0401L40.8183 74.7976C40.7082 73.4147 39.6898 71.6243 38.5552 70.8242L36.1925 69.1548C35.0582 68.3522 33.9301 65.4983 34.6121 64.2882C34.6121 64.2882 35.2202 62.535 39.557 62.535H49.1634C50.1497 62.5459 50.4478 63.5827 50.9848 64.8624L55.3559 75.2317C55.8957 76.5093 57.4732 77.5576 58.8626 77.5576H65.5289C66.9197 77.5576 67.9923 76.5266 67.9165 75.2667C67.8393 74.0061 66.8858 72.2667 65.7988 71.4024L61.1773 67.7289C60.0914 66.8646 58.1448 62.6805 59.2426 62.2236L63.6479 59.3372C65.1016 58.5487 66.1666 58.2333 67.1817 59.1802L85.038 75.8337C86.0553 76.7817 88.0218 77.558 89.4109 77.558H94.4734C95.8642 77.558 96.9999 76.5883 96.9999 75.4046C96.9999 74.2209 95.975 72.7607 94.7245 72.1591L90.6025 70.1804C89.3491 69.5781 87.7223 68.1248 86.9857 66.9469L75.9177 49.2833C75.1797 48.1075 75.5301 46.5254 76.6958 45.7704L80.1718 43.5174C81.3382 42.7628 83.4281 42.1446 84.8161 42.1446H86.5635C87.9507 42.1446 90.661 41.2742 91.5545 40.2114L93.4434 37.9656C94.3369 36.902 94.3633 35.1409 93.5037 34.0492C93.5037 34.0492 84.7897 25.5915 84.7897 24.2035V20.9195C84.7897 19.5315 83.8496 19.0317 82.6984 19.8112L58.1343 36.4228C56.9831 37.2008 54.9055 37.8382 53.5161 37.8382H27.8841C26.4969 37.8382 24.617 36.9771 23.7062 35.9273L11.4415 22.4976C10.5313 21.4456 9 21 7.5 21.5C6 22 5.50192 23.0107 4.5 24C3.10078 25.3816 1.98372 27.8615 1.98372 27.8615C0.96927 28.8088 1.98372 29.5 2.54237 28.8088C2.54237 28.8088 6.5 25 8 25C9.5 25 10.2097 27.6644 11 28.8088L16.1943 37.5632C16.9829 38.7072 16.7916 40.4113 15.7663 41.3478L6.68823 51.965C5.66476 52.9023 4.44496 54.7403 3.97978 56.0492L0.532959 65.7361C0.0688593 67.0432 -0.130711 69.2363 0.0912342 70.607L0.811923 75.0628Z" fill="black"/>
</svg>
